<svg viewBox="0 0 400 300" xmlns="http://www.w3.org/2000/svg">
  <rect width="100%" height="100%" fill="white"/>

  <!-- Circle -->
  <circle cx="200" cy="150" r="50" fill="#e3f2fd" stroke="black" stroke-width="2"/>
  <line x1="200" y1="150" x2="250" y2="150" stroke="black" stroke-width="2" />
  <text x="225" y="145" text-anchor="middle" font-size="14">5 cm</text>
  <text x="200" y="130" text-anchor="middle" font-size="14">Radius</text>

  <!-- Square 1 (Top) -->
  <rect x="170" y="80" width="60" height="60" fill="#e3f2fd" stroke="black" stroke-width="2"/>
  <line x1="170" y1="80" x2="230" y2="80" stroke="black" stroke-width="2" />
  <text x="200" y="70" text-anchor="middle" font-size="14">3 cm</text>
  <line x1="170" y1="80" x2="170" y2="140" stroke="black" stroke-width="2" />
  <text x="160" y="110" text-anchor="end" font-size="14">3 cm</text>
  <line x1="170" y1="80" x2="175" y2="85" stroke="black" stroke-width="2" />
  <line x1="170" y1="90" x2="175" y2="85" stroke="black" stroke-width="2" />
  <line x1="170" y1="140" x2="175" y2="135" stroke="black" stroke-width="2" />
  <line x1="170" y1="130" x2="175" y2="135" stroke="black" stroke-width="2" />

  <!-- Square 2 (Right) -->
  <rect x="250" y="120" width="60" height="60" fill="#e3f2fd" stroke="black" stroke-width="2"/>
  <line x1="250" y1="120" x2="310" y2="120" stroke="black" stroke-width="2" />
  <text x="280" y="110" text-anchor="middle" font-size="14">3 cm</text>
  <line x1="250" y1="120" x2="250" y2="180" stroke="black" stroke-width="2" />
  <text x="240" y="150" text-anchor="end" font-size="14">3 cm</text>
  <line x1="250" y1="120" x2="255" y2="125" stroke="black" stroke-width="2" />
  <line x1="250" y1="130" x2="255" y2="125" stroke="black" stroke-width="2" />
  <line x1="250" y1="180" x2="255" y2="175" stroke="black" stroke-width="2" />
  <line x1="250" y1="170" x2="255" y2="175" stroke="black" stroke-width="2" />

  <!-- Square 3 (Bottom) -->
  <rect x="170" y="160" width="60" height="60" fill="#e3f2fd" stroke="black" stroke-width="2"/>
  <line x1="170" y1="160" x2="230" y2="160" stroke="black" stroke-width="2" />
  <text x="200" y="150" text-anchor="middle" font-size="14">3 cm</text>
  <line x1="170" y1="160" x2="170" y2="220" stroke="black" stroke-width="2" />
  <text x="160" y="190" text-anchor="end" font-size="14">3 cm</text>
  <line x1="170" y1="160" x2="175" y2="165" stroke="black" stroke-width="2" />
  <line x1="170" y1="170" x2="175" y2="165" stroke="black" stroke-width="2" />
  <line x1="170" y1="220" x2="175" y2="215" stroke="black" stroke-width="2" />
  <line x1="170" y1="210" x2="175" y2="215" stroke="black" stroke-width="2" />

  <!-- Square 4 (Left) -->
  <rect x="70" y="120" width="60" height="60" fill="#e3f2fd" stroke="black" stroke-width="2"/>
  <line x1="70" y1="120" x2="130" y2="120" stroke="black" stroke-width="2" />
  <text x="100" y="110" text-anchor="middle" font-size="14">3 cm</text>
  <line x1="70" y1="120" x2="70" y2="180" stroke="black" stroke-width="2" />
  <text x="60" y="150" text-anchor="end" font-size="14">3 cm</text>
  <line x1="70" y1="120" x2="75" y2="125" stroke="black" stroke-width="2" />
  <line x1="70" y1="130" x2="75" y2="125" stroke="black" stroke-width="2" />
  <line x1="70" y1="180" x2="75" y2="175" stroke="black" stroke-width="2" />
  <line x1="70" y1="170" x2="75" y2="175" stroke="black" stroke-width="2" />

</svg>